<?xml version="1.0" encoding="iso-8859-1"?>
<!-- Generator: Adobe Illustrator 22.0.1, SVG Export Plug-In . SVG Version: 6.00 Build 0)  -->
<svg version="1.1" xmlns="http://www.w3.org/2000/svg" xmlns:xlink="http://www.w3.org/1999/xlink" x="0px" y="0px"
	 viewBox="0 0 512 512" style="enable-background:new 0 0 512 512;" xml:space="preserve">
<g id="BULINE">
	<circle id="XMLID_1144_" style="fill:#E28ECA;" cx="256" cy="255.975" r="256"/>
</g>
<g id="Icons">
	<g id="XMLID_1694_">
		<g id="XMLID_1241_">
			<path id="XMLID_1356_" style="fill:#B674A7;" d="M510.88,280.115c-6.57,70.4-41.65,132.52-93.58,174.71
				c-44.02,35.77-100.16,57.2-161.3,57.2c-33.38,0-65.27-6.39-94.51-18.02c-20.59-8.17-39.86-18.95-57.42-31.92
				C40.94,415.455,0,340.525,0,256.025c0-6.99,0.28-13.9,0.83-20.75c0.88-1.41,1.79-2.81,2.73-4.19c-0.75-0.41-1.5-0.84-2.24-1.27
				c8.3-81.58,54.9-151.82,121.52-192.47c24.62,10.45,44.7,29.38,55.04,54.87c11.1,27.4,8.83,57.18-3.8,83.18
				c-4.08,8.41-1.74,18.42,5.62,24.18c5.45,4.27,10.47,9.07,14.92,14.38c2.61,3.07,5.01,6.3,7.22,9.7c0.08,0.12,0.16,0.25,0.24,0.37
				c3.25,5.05,6.07,10.44,8.39,16.17c0.14,0.36,0.28,0.72,0.42,1.08c2.02-0.62,4.04-1.21,6.06-1.78c3.01-0.85,6.01-1.65,9.02-2.4
				c3.27-0.81,6.54-1.56,9.81-2.25c3.29-0.7,6.57-1.34,9.84-1.91c11.95-2.1,23.79-3.38,35.43-3.87c3.22-0.15,6.42-0.23,9.6-0.24
				c3.42-0.03,6.83,0.02,10.2,0.15c2.63,0.08,5.24,0.21,7.84,0.39c5.51,0.35,10.95,0.9,16.31,1.63c2,0.27,3.98,0.57,5.95,0.9
				c0.33,0.04,0.65,0.09,0.98,0.16c4.96,0.82,9.84,1.8,14.63,2.95c1.66,0.39,3.32,0.81,4.96,1.24c0.79,0.21,1.58,0.38,2.38,0.5
				c7.35,1.21,14.88-0.89,20.56-5.83c24.21-21.07,58-26.36,84.75-10.63c14.2,8.34,24.18,21.29,29.44,36.3
				c3.59,10.25,11.06,18.74,21.06,23.01C510.1,279.765,510.49,279.935,510.88,280.115z"/>
			<g id="XMLID_1242_">
				<rect id="XMLID_1267_" x="225.975" y="174.545" style="fill:#CBA17E;" width="74.88" height="79.05"/>
				<path id="XMLID_1352_" style="fill:#ADD6F7;" d="M417.3,307.685v147.14c-44.02,35.77-100.16,57.2-161.3,57.2
					c-33.38,0-65.27-6.39-94.51-18.02c-20.59-8.17-39.86-18.95-57.42-31.92v-154.4c0,0,6.65-41.61,45.76-55.75
					c5.49-1.99,10.84-4.27,15.97-6.73c1.85-0.88,3.66-1.77,5.45-2.68c2.03-1.05,4.02-2.11,5.97-3.2c8.1-4.49,15.42-9.21,21.65-13.57
					c1.02-0.71,2.01-1.41,2.97-2.1c5.45-3.91,9.89-7.42,13.08-10.04c0.11-0.08,0.21-0.17,0.31-0.25c3.43-2.83,5.33-4.57,5.33-4.57
					c-0.12,3.66,2.04,8.4,5.41,13.51c2.56,3.89,5.82,7.99,9.32,11.99c0.16,0.19,0.33,0.37,0.49,0.55
					c5.14,5.64,11.72,9.11,18.64,10.41c0.1,0.02,0.2,0.03,0.3,0.05l0.01,0.01c4.14,0.73,8.39,0.69,12.51-0.12
					c0.97-0.19,1.93-0.42,2.88-0.7c5.96-1.73,11.53-5.13,15.96-10.2c1.58-1.81,3.12-3.65,4.57-5.47
					c5.93-7.5,10.33-14.84,10.16-20.03c0,0,0.01,0.01,0.04,0.04c0.34,0.31,3.15,2.85,7.9,6.65c0.1,0.08,0.2,0.16,0.31,0.25
					c2.13,1.7,4.64,3.65,7.48,5.74c2.87,2.13,6.08,4.41,9.57,6.77c1.33,0.89,2.69,1.8,4.1,2.7c0.57,0.37,1.14,0.74,1.72,1.11
					c5,3.17,10.45,6.39,16.25,9.45c3.63,1.91,7.39,3.77,11.26,5.51c0.12,0.05,0.23,0.11,0.35,0.15c3.82,1.72,7.74,3.32,11.75,4.77
					C410.64,266.075,417.3,307.685,417.3,307.685z"/>
				<path id="XMLID_1265_" style="fill:#85C7EC;" d="M230.715,185.363c0,0-33.151,12.367-3.366,88.814
					c0,0,8.987-31.478,27.537-28.668C254.885,245.509,223.969,208.971,230.715,185.363z"/>
				<path id="XMLID_1264_" style="fill:#85C7EC;" d="M293.4,185.441c0,0,33.151,12.367,3.366,88.814c0,0-8.987-31.478-27.537-28.668
					C269.229,245.587,300.145,209.049,293.4,185.441z"/>
				<path id="XMLID_1263_" style="fill:#E8B88F;" d="M321.374,117.941c0.299-2.17,0.489-3.47,0.489-3.47
					c3.1-25.682-3.985-57.12-3.985-57.12c-9.742-28.782-54.464-27.01-54.464-27.01s-44.722-1.771-54.464,27.01
					c0,0-7.085,31.438-3.985,57.12c0,0,5.314,36.309,3.985,46.05c0,0,14.169,48.707,54.464,48.264
					c37.447,0.412,52.328-41.62,54.244-47.562c12.344,1.258,13.503-23.728,13.503-23.728c1.771-6.642,3.1-17.942,3.1-17.942
					C331.683,112.295,324.884,115.603,321.374,117.941z"/>
				<path id="XMLID_1262_" style="fill:#D2A886;" d="M257.142,187.457c-8.501-10.982-13.241-24.384-14.143-38.243
					c-0.932-14.319-3.923-34.743-3.923-34.743c-3.095-25.687,3.982-57.116,3.982-57.116c5.754-16.987,23.69-23.328,37.42-25.675
					c-9.548-1.635-17.062-1.336-17.062-1.336s-44.722-1.772-54.47,27.01c0,0-7.077,31.429-3.982,57.116c0,0,0.19,1.3,0.489,3.469
					c-3.511-2.338-10.308-5.645-12.886,1.614c0,0,1.328,11.3,3.1,17.942c0,0,1.159,24.982,13.5,23.728
					c1.924,5.965,16.805,47.975,54.249,47.558c6.316,0.075,11.995-1.061,17.062-3.046
					C270.53,201.889,262.867,194.852,257.142,187.457z"/>
				<path id="XMLID_1261_" style="fill:#E4975F;" d="M330.399,77.281c0,0-2.882-25.993-20.011-38.935
					c-0.017-1.503-0.413-3.053-1.327-4.533C301.713,21.91,286.66,8.852,255.98,8.852c0,0-64.247,4.079-62.84,57.736
					c0.068,2.581,1.501,4.842,3.641,6.023c-1.149,15.412-1.138,32.893,8.673,45.329c0,0,7-25.573,5.864-45.874
					c1.875-0.607,3.874-1.419,5.996-2.506c0,0,38.123-33.25,82.202-22.653c2.395,0.576,4.628,0.17,6.442-0.864
					c8.846,8.486,18.236,30.701,15.416,71.898C321.374,117.941,334.456,104.21,330.399,77.281z"/>
				<path id="XMLID_1260_" style="fill:#BD7D52;" d="M217.279,66.592c0.012,0.899,0.2,1.76,0.537,2.559
					c-0.325,0.262-0.499,0.412-0.499,0.412c-2.122,1.086-4.119,1.897-5.991,2.509c1.136,20.295-5.871,45.869-5.871,45.869
					c-9.811-12.432-9.818-29.918-8.67-45.333c-2.134-1.173-3.57-3.432-3.645-6.016c-1.398-53.659,62.845-57.74,62.845-57.74
					c5.617,0,10.722,0.437,15.34,1.236C253.787,13.432,216.193,25.415,217.279,66.592z"/>
				<polygon id="XMLID_1259_" style="fill:#556AAC;" points="273.388,264.916 262.576,264.916 251.765,264.916 240.792,342.423 
					240.792,422.929 262.576,422.929 284.361,422.929 284.361,342.423 				"/>
				<path id="XMLID_1258_" style="fill:#4E6297;" d="M242.327,263.283l15.377,18.844c2.774,3.4,7.991,3.332,10.675-0.14
					l14.557-18.825c2.144-2.772,1.836-6.719-0.711-9.126l-7.384-6.977c-1.266-1.196-2.941-1.862-4.682-1.862h-14.902
					c-1.697,0-3.333,0.633-4.588,1.775l-7.647,6.958C240.342,256.368,240.037,260.476,242.327,263.283z"/>
				<path id="XMLID_1318_" style="fill:#C5D5FC;" d="M417.3,307.685v147.14c-44.02,35.77-100.16,57.2-161.3,57.2
					c-33.38,0-65.27-6.39-94.51-18.02c-20.59-8.17-39.86-18.95-57.42-31.92v-154.4c0,0,6.65-41.61,45.76-55.75
					c5.49-1.99,10.84-4.27,15.97-6.73l-0.13-0.7c-0.1-0.51-0.13-1.04-0.07-1.55l5.65-0.43l5.53-0.43l1.97-0.15l10.2,18.87
					l37.03,68.5l16.04,4.43l0.48,0.13l20.55,49.74l16.32-39.56l4.99,1.38l11.71,3.23l38.19-83.75l1.95-1.39l12.48-8.87l10.75-7.64
					l0.44-0.31l-0.09,0.46c3.82,1.72,7.74,3.32,11.75,4.77C410.64,266.075,417.3,307.685,417.3,307.685z"/>
				<path id="XMLID_1296_" style="fill:#B9C9E7;" d="M189.39,261.645c-0.15,0.11-0.3,0.23-0.44,0.34
					c-4.99,3.87-9.1,8.21-12.48,12.63c-1.32,1.73-2.54,3.46-3.64,5.19c-9.17,14.29-11.34,27.88-11.34,27.88v186.32
					c-20.59-8.17-39.86-18.95-57.42-31.92v-154.4c0,0,6.65-41.61,45.76-55.75c5.49-1.99,10.84-4.27,15.97-6.73l-0.13-0.7
					c-0.1-0.51-0.13-1.04-0.07-1.55l5.65-0.43l5.53-0.43l1.97-0.15l10.2,18.89L189.39,261.645z"/>
				<path id="XMLID_1255_" style="fill:#FFFFFF;" d="M263.048,383.612l-49.609-30.977c-3.35-2.092-5.436-5.716-5.561-9.664
					l-1.048-33.001l-12.152,5.335c-6.909,3.033-14.854-1.086-16.357-8.481l-12.519-61.621l-0.137-0.699
					c-0.1-0.512-0.125-1.036-0.062-1.548c0.175-1.361,0.949-2.621,2.147-3.395l24.252-15.702c2.409-1.56,5.617-0.624,6.865,1.897
					c0.05,0.112,0.087,0.212,0.137,0.325l43.498,107.791L263.048,383.612z"/>
				<path id="XMLID_1254_" style="fill:#FFFFFF;" d="M360.33,244.505l-0.449,2.197l-0.087,0.462l-12.119,59.661
					c-1.502,7.395-9.447,11.514-16.357,8.481l-12.152-5.335l-1.048,33.007c-0.125,3.944-2.208,7.566-5.553,9.659l-49.517,30.976
					l16.326-39.554l46.731-115.817l0.874-2.159c1.123-2.771,4.493-3.844,7.015-2.222l24.252,15.702
					C359.893,240.623,360.717,242.582,360.33,244.505z"/>
				<g id="XMLID_1249_">
					<path id="XMLID_1253_" style="fill:#354488;" d="M187.961,219.317c-7.414,7.402-11.496,17.25-11.496,27.722v117.746
						c-15.004,2.705-26.426,15.85-26.426,31.621v26.523h12.482v-26.523c0-10.84,8.819-19.659,19.659-19.659
						c10.84,0,19.659,8.819,19.659,19.659v26.523h12.482v-26.523c0-15.4-10.89-28.3-25.373-31.417v-117.95
						c0-7.139,2.783-13.855,7.839-18.897c4.793-4.805,11.109-7.551,17.861-7.801c-0.025-4.768,0.387-8.912,1.098-12.507h-0.062
						C205.211,207.834,195.363,211.903,187.961,219.317z"/>
					<path id="XMLID_1251_" style="fill:#354488;" d="M337.204,220.091l-0.774-0.774c-7.402-7.414-17.25-11.483-27.722-11.483
						h-0.924c0.711,3.582,1.123,7.726,1.111,12.482c7.065,0.05,13.717,2.821,18.71,7.826l0.774,0.774
						c5.043,5.043,7.826,11.758,7.826,18.897v122.694h12.482V247.812C348.687,237.34,344.606,227.492,337.204,220.091z"/>
				</g>
				<g id="XMLID_1247_">
					<path id="XMLID_1248_" style="fill:#9AA0B4;" d="M168.606,481.072L168.606,481.072c-10.254,0-18.566-8.312-18.566-18.566
						v-39.577h12.482v39.577c0,3.361,2.724,6.085,6.085,6.085h0c1.58,0,2.86,1.281,2.86,2.86v6.761
						C171.466,479.792,170.186,481.072,168.606,481.072z"/>
				</g>
				<g id="XMLID_1245_">
					<path id="XMLID_1246_" style="fill:#9AA0B4;" d="M195.754,481.072L195.754,481.072c-1.58,0-2.86-1.281-2.86-2.86v-6.761
						c0-1.58,1.281-2.86,2.86-2.86h0c3.361,0,6.085-2.724,6.085-6.085v-39.577h12.482v39.577
						C214.32,472.76,206.008,481.072,195.754,481.072z"/>
				</g>
				<circle id="XMLID_1244_" style="fill:#FFFFFF;" cx="342.465" cy="383.612" r="21.219"/>
				<circle id="XMLID_1243_" style="fill:#9AA0B4;" cx="342.465" cy="383.612" r="13.106"/>
			</g>
		</g>
		<ellipse id="XMLID_1656_" style="fill:#CB9B74;" cx="255.265" cy="146.699" rx="5.883" ry="2.178"/>
		<ellipse id="XMLID_1653_" style="fill:#CB9B74;" cx="273.184" cy="146.699" rx="5.883" ry="2.178"/>
		<g id="XMLID_1651_">
			<path id="XMLID_1683_" style="fill:#CB9B74;" d="M247.177,113.437c-0.768,0-1.536-0.293-2.121-0.879
				c-4.57-4.569-12.005-4.569-16.575,0c-1.171,1.172-3.071,1.172-4.242,0c-1.172-1.171-1.172-3.071,0-4.242
				c6.908-6.909,18.151-6.909,25.06,0c1.172,1.171,1.172,3.071,0,4.242C248.713,113.144,247.945,113.437,247.177,113.437z"/>
		</g>
		<circle id="XMLID_1650_" style="fill:#CB9B74;" cx="237.518" cy="119.555" r="5.867"/>
		<circle id="XMLID_1648_" style="fill:#CB9B74;" cx="287.528" cy="119.555" r="5.867"/>
		<g id="XMLID_1649_">
			<path id="XMLID_1679_" style="fill:#CB9B74;" d="M297.937,113.437c-0.768,0-1.535-0.293-2.121-0.878
				c-2.214-2.214-5.157-3.433-8.288-3.433s-6.073,1.219-8.287,3.433c-1.17,1.172-3.07,1.171-4.242,0
				c-1.172-1.172-1.172-3.071,0-4.243c3.347-3.347,7.796-5.19,12.529-5.19s9.184,1.843,12.53,5.19c1.172,1.172,1.172,3.071,0,4.243
				C299.473,113.144,298.704,113.437,297.937,113.437z"/>
		</g>
		<g id="XMLID_1652_">
			<path id="XMLID_1678_" style="fill:#CB9B74;" d="M254.888,138.975c-0.243,0-0.49-0.029-0.736-0.092
				c-1.607-0.405-2.581-2.036-2.175-3.642l5.8-23c0.406-1.606,2.035-2.583,3.643-2.175c1.606,0.405,2.581,2.036,2.176,3.642
				l-5.801,23C257.451,138.069,256.229,138.975,254.888,138.975z"/>
		</g>
		<g id="XMLID_1658_">
			<path id="XMLID_1677_" style="fill:#CB9B74;" d="M273.608,171.641h-17.693c-1.319,0-2.576-0.791-2.964-2.052
				c-0.633-2.06,0.89-3.948,2.855-3.948h17.607c1.639,0,3.12,1.226,3.193,2.864C276.681,170.224,275.311,171.641,273.608,171.641z"
				/>
		</g>
	</g>
</g>
</svg>
